M48
;DRILL file {Pcbnew (2013-07-07 BZR 4022)-stable} date 11/4/2014 12:29:08 AM
;FORMAT={-:-/ absolute / inch / decimal}
FMAT,2
INCH,TZ
T1C0.025
T2C0.032
T3C0.035
T4C0.039
T5C0.040
T6C0.045
T7C0.064
T8C0.071
T9C0.090
T10C0.095
T11C0.098
T12C0.120
T13C0.158
%
G90
G05
M72
T1
X2.525Y-4.2
X2.575Y-4.3
X2.625Y-4.2
X2.675Y-4.3
X2.725Y-4.2
X2.775Y-4.3
X2.825Y-4.2
X2.875Y-4.3
X2.9Y-3.7
X2.925Y-4.2
X2.975Y-4.3
X3.025Y-2.8
X3.025Y-4.2
X3.075Y-4.3
X3.125Y-4.2
X3.1625Y-4.5625
X3.175Y-4.3
X3.2Y-4.3625
X3.225Y-4.2
X3.225Y-4.2625
X3.25Y-3.25
X3.275Y-4.3
X3.275Y-4.5125
X3.3Y-2.675
X3.325Y-4.2
X3.325Y-4.2625
X3.375Y-4.3
X3.425Y-4.2
X3.45Y-4.4
X3.475Y-4.3
X3.4875Y-4.4375
X3.5Y-2.675
X3.525Y-4.2
X3.525Y-4.475
X3.55Y-3.25
X3.575Y-4.3
X3.575Y-4.55
X3.6125Y-4.5875
X3.625Y-4.2
X3.65Y-2.675
X3.675Y-4.3
X3.725Y-4.2
X3.725Y-4.575
X3.775Y-4.3
X3.775Y-4.575
X3.825Y-4.2
X3.85Y-3.25
X3.85Y-4.7
X3.875Y-4.3
X3.9Y-6.25
X3.9Y-7.05
X3.925Y-4.2
X3.95Y-4.825
X3.975Y-3.8375
X3.975Y-4.3
X4.025Y-4.2
X4.0375Y-3.6875
X4.05Y-3.55
X4.05Y-3.6
X4.05Y-3.8625
X4.05Y-4.825
X4.0625Y-3.65
X4.075Y-2.9
X4.075Y-4.3
X4.0875Y-3.2125
X4.0875Y-3.3125
X4.1Y-4.875
X4.125Y-4.2
X4.1498Y-5.3252
X4.175Y-4.3
X4.2Y-4.875
X4.25Y-4.9
X4.25Y-5.3
X4.35Y-3.425
X4.35Y-3.675
X4.35Y-4.9
X4.3625Y-3.9625
X4.3625Y-4.8125
X4.4Y-2.75
X4.4125Y-4.8625
X4.425Y-4.2
X4.4375Y-4.0375
X4.45Y-2.5875
X4.45Y-3.2125
X4.45Y-3.725
X4.475Y-4.3
X4.485Y-3.385
X4.5Y-2.625
X4.5Y-2.75
X4.5125Y-4.5125
X4.5125Y-4.8625
X4.525Y-4.2
X4.5625Y-4.8125
X4.575Y-3.925
X4.575Y-4.3
X4.6125Y-4.5625
X4.625Y-4.2
X4.6375Y-3.0875
X4.675Y-4.3
X4.6875Y-2.6625
X4.7Y-2.75
X4.7Y-2.925
X4.7Y-3.925
X4.7Y-4.7375
X4.7Y-4.85
X4.725Y-4.2
X4.775Y-3.925
X4.775Y-3.975
X4.775Y-4.2375
X4.775Y-4.3
X4.8125Y-4.5625
X4.8125Y-4.8
X4.825Y-2.7
X4.825Y-4.2
X4.85Y-3.225
X4.85Y-3.875
X4.875Y-3.975
X4.875Y-4.2375
X4.875Y-4.3
X4.9Y-4.525
X4.925Y-4.2
X4.9375Y-3.0875
X4.9625Y-4.5375
X4.975Y-4.3
X5.Y-4.5
X5.0125Y-3.05
X5.0125Y-3.1875
X5.025Y-3.975
X5.025Y-4.2
X5.0375Y-4.8375
X5.05Y-4.9
X5.075Y-4.3
X5.1Y-3.95
X5.1Y-4.
X5.1Y-4.05
X5.1Y-4.5
X5.1125Y-2.8625
X5.125Y-4.2
X5.1375Y-4.7125
X5.1375Y-4.7625
X5.1375Y-4.8125
X5.1625Y-2.8875
X5.175Y-4.3
X5.1875Y-3.3625
X5.2125Y-4.5
X5.225Y-3.15
X5.225Y-3.275
X5.225Y-4.2
X5.2375Y-4.4625
X5.275Y-4.3
X5.2875Y-4.7125
X5.3Y-3.625
X5.3125Y-4.5125
X5.325Y-4.2
X5.35Y-4.475
X5.375Y-4.025
X5.375Y-4.3
X5.425Y-4.2
X5.425Y-4.2625
X5.4625Y-4.35
X5.475Y-4.3
X5.5125Y-4.5625
X5.525Y-4.2
X5.55Y-4.525
X5.575Y-4.3
X5.5875Y-3.5625
X5.6125Y-4.4875
X5.625Y-4.2
X5.675Y-4.3
X5.7Y-4.45
X5.725Y-4.2
X5.775Y-4.3
X5.775Y-4.475
X5.825Y-4.2
X5.85Y-3.3
X5.85Y-4.4875
X5.875Y-4.3
X5.925Y-4.2
X5.95Y-3.6875
X5.975Y-4.3
X6.025Y-4.2
X6.025Y-4.35
X6.075Y-4.3
X6.0875Y-5.7625
X6.1125Y-5.9
X6.1125Y-6.7
X6.1125Y-7.5
X6.1375Y-5.475
X6.1625Y-5.55
X6.1625Y-6.35
X6.1625Y-7.15
X6.175Y-7.725
X6.2Y-5.55
X6.2Y-6.35
X6.2Y-7.15
X6.2Y-7.7
X6.2375Y-4.125
X6.275Y-4.125
T2
X2.425Y-3.55
X2.425Y-3.75
X2.6Y-3.35
X2.6Y-3.5
X2.6Y-3.8
X2.65Y-2.4
X2.7Y-3.5
X2.7Y-3.8
X2.8Y-3.5
X2.8Y-3.8
X2.85Y-2.175
X2.85Y-2.4
X2.85Y-2.572
X2.85Y-2.828
X2.9Y-3.35
X2.9Y-3.5
X2.9Y-3.8
X2.925Y-3.05
X2.925Y-3.25
X2.95Y-2.175
X3.05Y-2.175
X3.1Y-3.
X3.1Y-3.3
X3.1Y-3.5
X3.1Y-3.7
X3.15Y-2.175
X3.15Y-5.35
X3.15Y-5.55
X3.15Y-6.15
X3.15Y-6.35
X3.15Y-6.95
X3.15Y-7.15
X3.15Y-7.75
X3.15Y-7.95
X3.2Y-3.
X3.2Y-3.3
X3.2Y-3.5
X3.2Y-3.7
X3.25Y-2.175
X3.3Y-2.5
X3.3Y-2.8
X3.3Y-3.
X3.3Y-3.3
X3.3Y-3.5
X3.3Y-3.7
X3.35Y-2.175
X3.4Y-2.5
X3.4Y-2.8
X3.4Y-3.
X3.4Y-3.3
X3.4Y-3.5
X3.4Y-3.7
X3.4Y-6.15
X3.4Y-6.35
X3.4Y-7.75
X3.4Y-7.95
X3.45Y-2.175
X3.5Y-2.5
X3.5Y-2.8
X3.5Y-3.
X3.5Y-3.3
X3.5Y-3.5
X3.5Y-3.7
X3.55Y-2.175
X3.6Y-2.5
X3.6Y-2.8
X3.6Y-3.
X3.6Y-3.3
X3.6Y-3.5
X3.6Y-3.7
X3.65Y-2.175
X3.65Y-6.15
X3.65Y-6.35
X3.65Y-7.75
X3.65Y-7.95
X3.7Y-2.5
X3.7Y-2.8
X3.7Y-3.
X3.7Y-3.3
X3.7Y-3.5
X3.7Y-3.7
X3.75Y-2.175
X3.8Y-2.5
X3.8Y-2.8
X3.8Y-3.
X3.8Y-3.3
X3.8Y-3.5
X3.8Y-3.7
X3.85Y-2.175
X3.85Y-5.35
X3.85Y-5.55
X3.9Y-2.5
X3.9Y-2.8
X3.9Y-3.
X3.9Y-3.3
X3.9Y-3.5
X3.9Y-3.7
X3.9Y-7.75
X3.9Y-7.95
X3.95Y-2.175
X4.Y-3.
X4.Y-3.3
X4.05Y-2.175
X4.15Y-2.175
X4.175Y-2.55
X4.175Y-2.75
X4.175Y-3.05
X4.175Y-3.25
X4.175Y-3.55
X4.175Y-3.75
X4.2Y-4.55
X4.25Y-2.175
X4.35Y-2.175
X4.35Y-2.5
X4.35Y-2.8
X4.35Y-3.
X4.35Y-3.3
X4.35Y-3.5
X4.35Y-3.8
X4.4Y-4.55
X4.45Y-2.175
X4.45Y-2.5
X4.45Y-2.8
X4.45Y-3.
X4.45Y-3.3
X4.45Y-3.5
X4.45Y-3.8
X4.55Y-2.175
X4.55Y-2.5
X4.55Y-2.8
X4.55Y-3.
X4.55Y-3.3
X4.55Y-3.5
X4.55Y-3.8
X4.65Y-2.175
X4.65Y-2.5
X4.65Y-2.8
X4.65Y-3.
X4.65Y-3.3
X4.65Y-3.5
X4.65Y-3.8
X4.75Y-2.175
X4.75Y-2.5
X4.75Y-2.8
X4.75Y-3.
X4.75Y-3.3
X4.75Y-3.5
X4.75Y-3.8
X4.85Y-2.175
X4.85Y-2.5
X4.85Y-2.8
X4.85Y-3.
X4.85Y-3.3
X4.85Y-3.5
X4.85Y-3.8
X4.95Y-2.175
X4.95Y-2.5
X4.95Y-2.8
X4.95Y-3.
X4.95Y-3.3
X4.95Y-3.5
X4.95Y-3.8
X5.05Y-2.175
X5.05Y-2.5
X5.05Y-2.8
X5.05Y-3.
X5.05Y-3.3
X5.05Y-3.5
X5.05Y-3.8
X5.15Y-2.175
X5.225Y-3.55
X5.225Y-3.75
X5.25Y-2.175
X5.3125Y-3.1
X5.3125Y-3.3
X5.35Y-2.175
X5.4Y-2.5
X5.4Y-2.8
X5.4Y-3.5
X5.4Y-3.8
X5.45Y-2.175
X5.5Y-2.5
X5.5Y-2.8
X5.5Y-3.5
X5.5Y-3.8
X5.55Y-2.175
X5.6Y-2.5
X5.6Y-2.8
X5.6Y-3.5
X5.6Y-3.8
X5.65Y-2.175
X5.7Y-2.5
X5.7Y-2.8
X5.7Y-2.95
X5.7Y-3.35
X5.7Y-3.5
X5.7Y-3.8
X5.75Y-2.175
X5.75Y-2.4
X5.75Y-3.15
X5.8Y-2.5
X5.8Y-2.8
X5.8Y-3.5
X5.8Y-3.8
X5.8Y-5.35
X5.8Y-5.55
X5.8Y-6.15
X5.8Y-6.35
X5.8Y-6.95
X5.8Y-7.15
X5.8Y-7.75
X5.8Y-7.95
X5.85Y-3.15
X5.9Y-2.5
X5.9Y-2.8
X5.9Y-3.5
X5.9Y-3.8
X5.95Y-2.4
X5.95Y-3.15
X6.Y-2.5
X6.Y-2.8
X6.Y-2.95
X6.Y-3.35
X6.Y-3.5
X6.Y-3.8
X6.225Y-2.8
X6.225Y-3.
X6.225Y-3.1
X6.225Y-3.3
X6.225Y-3.4
X6.225Y-3.6
X6.35Y-5.6
X6.35Y-5.9
X6.35Y-6.15
X6.35Y-6.35
X6.35Y-6.55
X6.35Y-6.75
X6.35Y-7.4
X6.35Y-7.7
X6.45Y-5.6
X6.45Y-5.9
X6.45Y-6.15
X6.45Y-6.35
X6.45Y-6.55
X6.45Y-6.75
X6.45Y-7.4
X6.45Y-7.7
T3
X2.335Y-2.9681
X2.335Y-3.0488
X2.335Y-3.1512
X2.335Y-3.2319
X2.4331Y-2.9681
X2.4331Y-3.2319
T4
X6.2739Y-4.522
X6.2739Y-4.778
X6.4511Y-4.522
X6.4511Y-4.778
T5
X2.2Y-3.6
X2.2Y-3.7
X3.Y-4.95
X3.Y-5.15
X3.Y-5.75
X3.Y-5.95
X3.Y-6.55
X3.Y-6.75
X3.Y-7.35
X3.Y-7.55
X3.Y-8.15
X3.Y-8.35
X3.1Y-4.95
X3.1Y-5.15
X3.1Y-5.75
X3.1Y-5.95
X3.1Y-6.55
X3.1Y-6.75
X3.1Y-7.35
X3.1Y-7.55
X3.1Y-8.15
X3.1Y-8.35
X3.2Y-4.95
X3.2Y-5.15
X3.2Y-5.75
X3.2Y-5.95
X3.2Y-6.55
X3.2Y-6.75
X3.2Y-7.35
X3.2Y-7.55
X3.2Y-8.15
X3.2Y-8.35
X3.3Y-4.95
X3.3Y-5.15
X3.3Y-5.75
X3.3Y-5.95
X3.3Y-6.55
X3.3Y-6.75
X3.3Y-7.35
X3.3Y-7.55
X3.3Y-8.15
X3.3Y-8.35
X3.4Y-4.95
X3.4Y-5.15
X3.4Y-5.75
X3.4Y-5.95
X3.4Y-6.55
X3.4Y-6.75
X3.4Y-7.35
X3.4Y-7.55
X3.4Y-8.15
X3.4Y-8.35
X3.5Y-4.95
X3.5Y-5.15
X3.5Y-5.75
X3.5Y-5.95
X3.5Y-6.55
X3.5Y-6.75
X3.5Y-7.35
X3.5Y-7.55
X3.5Y-8.15
X3.5Y-8.35
X3.6Y-4.95
X3.6Y-5.15
X3.6Y-5.75
X3.6Y-5.95
X3.6Y-6.55
X3.6Y-6.75
X3.6Y-7.35
X3.6Y-7.55
X3.6Y-8.15
X3.6Y-8.35
X3.7Y-4.95
X3.7Y-5.15
X3.7Y-5.75
X3.7Y-5.95
X3.7Y-6.55
X3.7Y-6.75
X3.7Y-7.35
X3.7Y-7.55
X3.7Y-8.15
X3.7Y-8.35
X3.8Y-4.95
X3.8Y-5.15
X3.8Y-5.75
X3.8Y-5.95
X3.8Y-6.55
X3.8Y-6.75
X3.8Y-7.35
X3.8Y-7.55
X3.8Y-8.15
X3.8Y-8.35
X3.9Y-4.95
X3.9Y-5.15
X3.9Y-5.75
X3.9Y-5.95
X3.9Y-6.55
X3.9Y-6.75
X3.9Y-7.35
X3.9Y-7.55
X3.9Y-8.15
X3.9Y-8.35
X4.Y-4.95
X4.Y-5.15
X4.Y-5.75
X4.Y-5.95
X4.Y-6.55
X4.Y-6.75
X4.Y-7.35
X4.Y-7.55
X4.Y-8.15
X4.Y-8.35
X4.1Y-4.95
X4.1Y-5.15
X4.1Y-5.75
X4.1Y-5.95
X4.1Y-6.55
X4.1Y-6.75
X4.1Y-7.35
X4.1Y-7.55
X4.1Y-8.15
X4.1Y-8.35
X4.2Y-4.95
X4.2Y-5.15
X4.2Y-5.75
X4.2Y-5.95
X4.2Y-6.55
X4.2Y-6.75
X4.2Y-7.35
X4.2Y-7.55
X4.2Y-8.15
X4.2Y-8.35
X4.3Y-4.95
X4.3Y-5.15
X4.3Y-5.75
X4.3Y-5.95
X4.3Y-6.55
X4.3Y-6.75
X4.3Y-7.35
X4.3Y-7.55
X4.3Y-8.15
X4.3Y-8.35
X4.4Y-4.95
X4.4Y-5.15
X4.4Y-5.75
X4.4Y-5.95
X4.4Y-6.55
X4.4Y-6.75
X4.4Y-7.35
X4.4Y-7.55
X4.4Y-8.15
X4.4Y-8.35
X4.5Y-4.95
X4.5Y-5.15
X4.5Y-5.75
X4.5Y-5.95
X4.5Y-6.55
X4.5Y-6.75
X4.5Y-7.35
X4.5Y-7.55
X4.5Y-8.15
X4.5Y-8.35
X4.6Y-4.95
X4.6Y-5.15
X4.6Y-5.75
X4.6Y-5.95
X4.6Y-6.55
X4.6Y-6.75
X4.6Y-7.35
X4.6Y-7.55
X4.6Y-8.15
X4.6Y-8.35
X4.7Y-4.95
X4.7Y-5.15
X4.7Y-5.75
X4.7Y-5.95
X4.7Y-6.55
X4.7Y-6.75
X4.7Y-7.35
X4.7Y-7.55
X4.7Y-8.15
X4.7Y-8.35
X4.8Y-4.95
X4.8Y-5.15
X4.8Y-5.75
X4.8Y-5.95
X4.8Y-6.55
X4.8Y-6.75
X4.8Y-7.35
X4.8Y-7.55
X4.8Y-8.15
X4.8Y-8.35
X4.9Y-4.95
X4.9Y-5.15
X4.9Y-5.75
X4.9Y-5.95
X4.9Y-6.55
X4.9Y-6.75
X4.9Y-7.35
X4.9Y-7.55
X4.9Y-8.15
X4.9Y-8.35
X5.Y-4.95
X5.Y-5.15
X5.Y-5.75
X5.Y-5.95
X5.Y-6.55
X5.Y-6.75
X5.Y-7.35
X5.Y-7.55
X5.Y-8.15
X5.Y-8.35
X5.1Y-4.95
X5.1Y-5.15
X5.1Y-5.75
X5.1Y-5.95
X5.1Y-6.55
X5.1Y-6.75
X5.1Y-7.35
X5.1Y-7.55
X5.1Y-8.15
X5.1Y-8.35
X5.2Y-4.95
X5.2Y-5.15
X5.2Y-5.75
X5.2Y-5.95
X5.2Y-6.55
X5.2Y-6.75
X5.2Y-7.35
X5.2Y-7.55
X5.2Y-8.15
X5.2Y-8.35
X5.3Y-4.95
X5.3Y-5.15
X5.3Y-5.75
X5.3Y-5.95
X5.3Y-6.55
X5.3Y-6.75
X5.3Y-7.35
X5.3Y-7.55
X5.3Y-8.15
X5.3Y-8.35
X5.4Y-4.95
X5.4Y-5.15
X5.4Y-5.75
X5.4Y-5.95
X5.4Y-6.55
X5.4Y-6.75
X5.4Y-7.35
X5.4Y-7.55
X5.4Y-8.15
X5.4Y-8.35
X5.5Y-3.
X5.5Y-3.1
X5.5Y-3.2
X5.5Y-3.3
X5.5Y-4.95
X5.5Y-5.15
X5.5Y-5.75
X5.5Y-5.95
X5.5Y-6.55
X5.5Y-6.75
X5.5Y-7.35
X5.5Y-7.55
X5.5Y-8.15
X5.5Y-8.35
X5.6Y-4.95
X5.6Y-5.15
X5.6Y-5.75
X5.6Y-5.95
X5.6Y-6.55
X5.6Y-6.75
X5.6Y-7.35
X5.6Y-7.55
X5.6Y-8.15
X5.6Y-8.35
X5.7Y-4.95
X5.7Y-5.15
X5.7Y-5.75
X5.7Y-5.95
X5.7Y-6.55
X5.7Y-6.75
X5.7Y-7.35
X5.7Y-7.55
X5.7Y-8.15
X5.7Y-8.35
X5.8Y-4.95
X5.8Y-5.15
X5.8Y-5.75
X5.8Y-5.95
X5.8Y-6.55
X5.8Y-6.75
X5.8Y-7.35
X5.8Y-7.55
X5.8Y-8.15
X5.8Y-8.35
X5.9Y-4.95
X5.9Y-5.15
X5.9Y-5.75
X5.9Y-5.95
X5.9Y-6.55
X5.9Y-6.75
X5.9Y-7.35
X5.9Y-7.55
X5.9Y-8.15
X5.9Y-8.35
X6.Y-4.6
X6.Y-4.7
X6.Y-4.95
X6.Y-5.15
X6.Y-5.75
X6.Y-5.95
X6.Y-6.55
X6.Y-6.75
X6.Y-7.35
X6.Y-7.55
X6.Y-8.15
X6.Y-8.35
X6.35Y-2.1375
X6.35Y-2.2375
X6.45Y-2.1375
X6.45Y-2.2375
X6.475Y-2.85
X6.475Y-2.95
X6.475Y-3.05
X6.475Y-3.15
X6.475Y-3.25
X6.475Y-3.35
X6.475Y-3.45
X6.475Y-3.55
X6.475Y-3.7
X6.475Y-3.8
T6
X2.3Y-5.9
X2.4Y-5.9
X2.5Y-5.9
T7
X2.2Y-4.25
X4.3Y-4.25
T8
X2.4724Y-2.175
T9
X2.185Y-3.1
X2.2169Y-2.8339
X2.2169Y-3.3661
T10
X6.4Y-4.25
T11
X6.1276Y-2.175
T12
X2.4Y-6.55
T13
X2.4Y-2.55
X2.4Y-5.35
X2.4Y-7.15
X2.4Y-7.95
X6.4Y-2.55
X6.4Y-5.35
X6.4Y-7.15
X6.4Y-7.95
T0
M30
